<svg width="158" height="56" viewBox="0 0 158 56" fill="none" xmlns="http://www.w3.org/2000/svg">
<circle cx="24" cy="28" r="24" fill="#EBEAFF"/>
<path d="M33 23.875V18.625C29.698 20.9493 25.7862 22.2532 21.75 22.375H18.75V29.875C18.75 32.1625 18.75 35.65 22.9875 37.3375H23.25C23.431 37.3448 23.6085 37.2863 23.7497 37.1729C23.8909 37.0595 23.9864 36.8989 24.0184 36.7206C24.0504 36.5423 24.0168 36.3585 23.9238 36.2031C23.8308 36.0476 23.6847 35.9311 23.5125 35.875C20.25 34.6 20.25 32.0875 20.25 29.875H21.75C25.8052 29.8857 29.7494 31.2005 33 33.625V28.375C33.5967 28.375 34.169 28.1379 34.591 27.716C35.0129 27.294 35.25 26.7217 35.25 26.125C35.25 25.5283 35.0129 24.956 34.591 24.534C34.169 24.1121 33.5967 23.875 33 23.875ZM12.75 24.625V27.625C12.75 28.2217 12.9871 28.794 13.409 29.216C13.831 29.6379 14.4033 29.875 15 29.875H17.25V22.375H15C14.4033 22.375 13.831 22.6121 13.409 23.034C12.9871 23.456 12.75 24.0283 12.75 24.625Z" fill="#5C50E4"/>
<path d="M78.94 34.436V47H76.42V38.828L73.054 47H71.146L67.762 38.828V47H65.242V34.436H68.104L72.1 43.778L76.096 34.436H78.94ZM80.7835 41.978C80.7835 40.97 80.9815 40.076 81.3775 39.296C81.7855 38.516 82.3315 37.916 83.0155 37.496C83.7115 37.076 84.4855 36.866 85.3375 36.866C86.0815 36.866 86.7295 37.016 87.2815 37.316C87.8455 37.616 88.2955 37.994 88.6315 38.45V37.028H91.1695V47H88.6315V45.542C88.3075 46.01 87.8575 46.4 87.2815 46.712C86.7175 47.012 86.0635 47.162 85.3195 47.162C84.4795 47.162 83.7115 46.946 83.0155 46.514C82.3315 46.082 81.7855 45.476 81.3775 44.696C80.9815 43.904 80.7835 42.998 80.7835 41.978ZM88.6315 42.014C88.6315 41.402 88.5115 40.88 88.2715 40.448C88.0315 40.004 87.7075 39.668 87.2995 39.44C86.8915 39.2 86.4535 39.08 85.9855 39.08C85.5175 39.08 85.0855 39.194 84.6895 39.422C84.2935 39.65 83.9695 39.986 83.7175 40.43C83.4775 40.862 83.3575 41.378 83.3575 41.978C83.3575 42.578 83.4775 43.106 83.7175 43.562C83.9695 44.006 84.2935 44.348 84.6895 44.588C85.0975 44.828 85.5295 44.948 85.9855 44.948C86.4535 44.948 86.8915 44.834 87.2995 44.606C87.7075 44.366 88.0315 44.03 88.2715 43.598C88.5115 43.154 88.6315 42.626 88.6315 42.014ZM96.1507 38.576C96.4747 38.048 96.8947 37.634 97.4107 37.334C97.9387 37.034 98.5387 36.884 99.2107 36.884V39.53H98.5447C97.7527 39.53 97.1527 39.716 96.7447 40.088C96.3487 40.46 96.1507 41.108 96.1507 42.032V47H93.6307V37.028H96.1507V38.576ZM106.812 47L103.428 42.752V47H100.908V33.68H103.428V41.258L106.776 37.028H110.052L105.66 42.032L110.088 47H106.812ZM120.69 41.798C120.69 42.158 120.666 42.482 120.618 42.77H113.328C113.388 43.49 113.64 44.054 114.084 44.462C114.528 44.87 115.074 45.074 115.722 45.074C116.658 45.074 117.324 44.672 117.72 43.868H120.438C120.15 44.828 119.598 45.62 118.782 46.244C117.966 46.856 116.964 47.162 115.776 47.162C114.816 47.162 113.952 46.952 113.184 46.532C112.428 46.1 111.834 45.494 111.402 44.714C110.982 43.934 110.772 43.034 110.772 42.014C110.772 40.982 110.982 40.076 111.402 39.296C111.822 38.516 112.41 37.916 113.166 37.496C113.922 37.076 114.792 36.866 115.776 36.866C116.724 36.866 117.57 37.07 118.314 37.478C119.07 37.886 119.652 38.468 120.06 39.224C120.48 39.968 120.69 40.826 120.69 41.798ZM118.08 41.078C118.068 40.43 117.834 39.914 117.378 39.53C116.922 39.134 116.364 38.936 115.704 38.936C115.08 38.936 114.552 39.128 114.12 39.512C113.7 39.884 113.442 40.406 113.346 41.078H118.08ZM125.463 39.098V43.922C125.463 44.258 125.541 44.504 125.697 44.66C125.865 44.804 126.141 44.876 126.525 44.876H127.695V47H126.111C123.987 47 122.925 45.968 122.925 43.904V39.098H121.737V37.028H122.925V34.562H125.463V37.028H127.695V39.098H125.463ZM130.786 35.84C130.342 35.84 129.97 35.702 129.67 35.426C129.382 35.138 129.238 34.784 129.238 34.364C129.238 33.944 129.382 33.596 129.67 33.32C129.97 33.032 130.342 32.888 130.786 32.888C131.23 32.888 131.596 33.032 131.884 33.32C132.184 33.596 132.334 33.944 132.334 34.364C132.334 34.784 132.184 35.138 131.884 35.426C131.596 35.702 131.23 35.84 130.786 35.84ZM132.028 37.028V47H129.508V37.028H132.028ZM140.043 36.884C141.231 36.884 142.191 37.262 142.923 38.018C143.655 38.762 144.021 39.806 144.021 41.15V47H141.501V41.492C141.501 40.7 141.303 40.094 140.907 39.674C140.511 39.242 139.971 39.026 139.287 39.026C138.591 39.026 138.039 39.242 137.631 39.674C137.235 40.094 137.037 40.7 137.037 41.492V47H134.517V37.028H137.037V38.27C137.373 37.838 137.799 37.502 138.315 37.262C138.843 37.01 139.419 36.884 140.043 36.884ZM150.324 36.866C151.068 36.866 151.722 37.016 152.286 37.316C152.85 37.604 153.294 37.982 153.618 38.45V37.028H156.156V47.072C156.156 47.996 155.97 48.818 155.598 49.538C155.226 50.27 154.668 50.846 153.924 51.266C153.18 51.698 152.28 51.914 151.224 51.914C149.808 51.914 148.644 51.584 147.732 50.924C146.832 50.264 146.322 49.364 146.202 48.224H148.704C148.836 48.68 149.118 49.04 149.55 49.304C149.994 49.58 150.528 49.718 151.152 49.718C151.884 49.718 152.478 49.496 152.934 49.052C153.39 48.62 153.618 47.96 153.618 47.072V45.524C153.294 45.992 152.844 46.382 152.268 46.694C151.704 47.006 151.056 47.162 150.324 47.162C149.484 47.162 148.716 46.946 148.02 46.514C147.324 46.082 146.772 45.476 146.364 44.696C145.968 43.904 145.77 42.998 145.77 41.978C145.77 40.97 145.968 40.076 146.364 39.296C146.772 38.516 147.318 37.916 148.002 37.496C148.698 37.076 149.472 36.866 150.324 36.866ZM153.618 42.014C153.618 41.402 153.498 40.88 153.258 40.448C153.018 40.004 152.694 39.668 152.286 39.44C151.878 39.2 151.44 39.08 150.972 39.08C150.504 39.08 150.072 39.194 149.676 39.422C149.28 39.65 148.956 39.986 148.704 40.43C148.464 40.862 148.344 41.378 148.344 41.978C148.344 42.578 148.464 43.106 148.704 43.562C148.956 44.006 149.28 44.348 149.676 44.588C150.084 44.828 150.516 44.948 150.972 44.948C151.44 44.948 151.878 44.834 152.286 44.606C152.694 44.366 153.018 44.03 153.258 43.598C153.498 43.154 153.618 42.626 153.618 42.014Z" fill="#171100"/>
<path d="M64.84 10.426C64.9053 9.56733 65.2367 8.89533 65.834 8.41C66.4313 7.92467 67.206 7.682 68.158 7.682C68.7927 7.682 69.3387 7.79867 69.796 8.032C70.2627 8.256 70.6127 8.564 70.846 8.956C71.0887 9.348 71.21 9.79133 71.21 10.286C71.21 10.8647 71.042 11.364 70.706 11.784C70.3793 12.204 69.95 12.4747 69.418 12.596V12.666C70.0247 12.8153 70.5053 13.1093 70.86 13.548C71.2147 13.9867 71.392 14.5607 71.392 15.27C71.392 15.802 71.2707 16.2827 71.028 16.712C70.7853 17.132 70.4213 17.4633 69.936 17.706C69.4507 17.9487 68.8673 18.07 68.186 18.07C67.1967 18.07 66.3847 17.8133 65.75 17.3C65.1153 16.7773 64.7607 16.04 64.686 15.088H65.918C65.9833 15.648 66.212 16.1053 66.604 16.46C66.996 16.8147 67.5187 16.992 68.172 16.992C68.8253 16.992 69.32 16.824 69.656 16.488C70.0013 16.1427 70.174 15.6993 70.174 15.158C70.174 14.458 69.9407 13.954 69.474 13.646C69.0073 13.338 68.3027 13.184 67.36 13.184H67.038V12.12H67.374C68.2327 12.1107 68.8813 11.9707 69.32 11.7C69.7587 11.42 69.978 10.9907 69.978 10.412C69.978 9.91733 69.8147 9.52067 69.488 9.222C69.1707 8.92333 68.7133 8.774 68.116 8.774C67.5373 8.774 67.0707 8.92333 66.716 9.222C66.3613 9.52067 66.1513 9.922 66.086 10.426H64.84ZM73.1121 12.834C73.1121 11.2287 73.3735 9.978 73.8961 9.082C74.4188 8.17667 75.3335 7.724 76.6401 7.724C77.9375 7.724 78.8475 8.17667 79.3701 9.082C79.8928 9.978 80.1541 11.2287 80.1541 12.834C80.1541 14.4673 79.8928 15.7367 79.3701 16.642C78.8475 17.5473 77.9375 18 76.6401 18C75.3335 18 74.4188 17.5473 73.8961 16.642C73.3735 15.7367 73.1121 14.4673 73.1121 12.834ZM78.8941 12.834C78.8941 12.022 78.8381 11.336 78.7261 10.776C78.6235 10.2067 78.4041 9.74933 78.0681 9.404C77.7415 9.05867 77.2655 8.886 76.6401 8.886C76.0055 8.886 75.5201 9.05867 75.1841 9.404C74.8575 9.74933 74.6381 10.2067 74.5261 10.776C74.4235 11.336 74.3721 12.022 74.3721 12.834C74.3721 13.674 74.4235 14.3787 74.5261 14.948C74.6381 15.5173 74.8575 15.9747 75.1841 16.32C75.5201 16.6653 76.0055 16.838 76.6401 16.838C77.2655 16.838 77.7415 16.6653 78.0681 16.32C78.4041 15.9747 78.6235 15.5173 78.7261 14.948C78.8381 14.3787 78.8941 13.674 78.8941 12.834ZM85.3696 13.114C85.3696 12.162 85.5842 11.308 86.0136 10.552C86.4429 9.78667 87.0262 9.18933 87.7636 8.76C88.5102 8.33067 89.3362 8.116 90.2416 8.116C91.3056 8.116 92.2342 8.37267 93.0276 8.886C93.8209 9.39933 94.3996 10.1273 94.7636 11.07H93.2376C92.9669 10.482 92.5749 10.0293 92.0616 9.712C91.5576 9.39467 90.9509 9.236 90.2416 9.236C89.5602 9.236 88.9489 9.39467 88.4076 9.712C87.8662 10.0293 87.4416 10.482 87.1336 11.07C86.8256 11.6487 86.6716 12.33 86.6716 13.114C86.6716 13.8887 86.8256 14.57 87.1336 15.158C87.4416 15.7367 87.8662 16.1847 88.4076 16.502C88.9489 16.8193 89.5602 16.978 90.2416 16.978C90.9509 16.978 91.5576 16.824 92.0616 16.516C92.5749 16.1987 92.9669 15.746 93.2376 15.158H94.7636C94.3996 16.0913 93.8209 16.8147 93.0276 17.328C92.2342 17.832 91.3056 18.084 90.2416 18.084C89.3362 18.084 88.5102 17.874 87.7636 17.454C87.0262 17.0247 86.4429 16.432 86.0136 15.676C85.5842 14.92 85.3696 14.066 85.3696 13.114ZM100.006 18.126C99.2874 18.126 98.634 17.9627 98.046 17.636C97.4674 17.3093 97.01 16.8473 96.674 16.25C96.3474 15.6433 96.184 14.9433 96.184 14.15C96.184 13.366 96.352 12.6753 96.688 12.078C97.0334 11.4713 97.5 11.0093 98.088 10.692C98.676 10.3653 99.334 10.202 100.062 10.202C100.79 10.202 101.448 10.3653 102.036 10.692C102.624 11.0093 103.086 11.4667 103.422 12.064C103.767 12.6613 103.94 13.3567 103.94 14.15C103.94 14.9433 103.763 15.6433 103.408 16.25C103.063 16.8473 102.591 17.3093 101.994 17.636C101.397 17.9627 100.734 18.126 100.006 18.126ZM100.006 17.006C100.463 17.006 100.893 16.8987 101.294 16.684C101.695 16.4693 102.017 16.1473 102.26 15.718C102.512 15.2887 102.638 14.766 102.638 14.15C102.638 13.534 102.517 13.0113 102.274 12.582C102.031 12.1527 101.714 11.8353 101.322 11.63C100.93 11.4153 100.505 11.308 100.048 11.308C99.5814 11.308 99.152 11.4153 98.76 11.63C98.3774 11.8353 98.0694 12.1527 97.836 12.582C97.6027 13.0113 97.486 13.534 97.486 14.15C97.486 14.7753 97.598 15.3027 97.822 15.732C98.0554 16.1613 98.3634 16.4833 98.746 16.698C99.1287 16.9033 99.5487 17.006 100.006 17.006ZM112.419 10.328V18H111.145V16.866C110.902 17.258 110.562 17.566 110.123 17.79C109.694 18.0047 109.218 18.112 108.695 18.112C108.098 18.112 107.561 17.9907 107.085 17.748C106.609 17.496 106.231 17.1227 105.951 16.628C105.68 16.1333 105.545 15.5313 105.545 14.822V10.328H106.805V14.654C106.805 15.41 106.996 15.9933 107.379 16.404C107.762 16.8053 108.284 17.006 108.947 17.006C109.628 17.006 110.165 16.796 110.557 16.376C110.949 15.956 111.145 15.3447 111.145 14.542V10.328H112.419ZM115.844 11.574C116.068 11.1353 116.386 10.7947 116.796 10.552C117.216 10.3093 117.725 10.188 118.322 10.188V11.504H117.986C116.558 11.504 115.844 12.2787 115.844 13.828V18H114.57V10.328H115.844V11.574ZM122.509 18.126C121.921 18.126 121.394 18.028 120.927 17.832C120.46 17.6267 120.092 17.3467 119.821 16.992C119.55 16.628 119.401 16.2127 119.373 15.746H120.689C120.726 16.1287 120.904 16.4413 121.221 16.684C121.548 16.9267 121.972 17.048 122.495 17.048C122.98 17.048 123.363 16.9407 123.643 16.726C123.923 16.5113 124.063 16.2407 124.063 15.914C124.063 15.578 123.914 15.3307 123.615 15.172C123.316 15.004 122.854 14.8407 122.229 14.682C121.66 14.5327 121.193 14.3833 120.829 14.234C120.474 14.0753 120.166 13.8467 119.905 13.548C119.653 13.24 119.527 12.8387 119.527 12.344C119.527 11.952 119.644 11.5927 119.877 11.266C120.11 10.9393 120.442 10.6827 120.871 10.496C121.3 10.3 121.79 10.202 122.341 10.202C123.19 10.202 123.876 10.4167 124.399 10.846C124.922 11.2753 125.202 11.8633 125.239 12.61H123.965C123.937 12.2087 123.774 11.8867 123.475 11.644C123.186 11.4013 122.794 11.28 122.299 11.28C121.842 11.28 121.478 11.378 121.207 11.574C120.936 11.77 120.801 12.0267 120.801 12.344C120.801 12.596 120.88 12.806 121.039 12.974C121.207 13.1327 121.412 13.2633 121.655 13.366C121.907 13.4593 122.252 13.5667 122.691 13.688C123.242 13.8373 123.69 13.9867 124.035 14.136C124.38 14.276 124.674 14.4907 124.917 14.78C125.169 15.0693 125.3 15.4473 125.309 15.914C125.309 16.334 125.192 16.712 124.959 17.048C124.726 17.384 124.394 17.65 123.965 17.846C123.545 18.0327 123.06 18.126 122.509 18.126ZM134.107 13.87C134.107 14.1127 134.093 14.3693 134.065 14.64H127.933C127.98 15.396 128.237 15.9887 128.703 16.418C129.179 16.838 129.753 17.048 130.425 17.048C130.976 17.048 131.433 16.922 131.797 16.67C132.171 16.4087 132.432 16.0633 132.581 15.634H133.953C133.748 16.3713 133.337 16.9733 132.721 17.44C132.105 17.8973 131.34 18.126 130.425 18.126C129.697 18.126 129.044 17.9627 128.465 17.636C127.896 17.3093 127.448 16.8473 127.121 16.25C126.795 15.6433 126.631 14.9433 126.631 14.15C126.631 13.3567 126.79 12.6613 127.107 12.064C127.425 11.4667 127.868 11.0093 128.437 10.692C129.016 10.3653 129.679 10.202 130.425 10.202C131.153 10.202 131.797 10.3607 132.357 10.678C132.917 10.9953 133.347 11.434 133.645 11.994C133.953 12.5447 134.107 13.17 134.107 13.87ZM132.791 13.604C132.791 13.1187 132.684 12.7033 132.469 12.358C132.255 12.0033 131.961 11.7373 131.587 11.56C131.223 11.3733 130.817 11.28 130.369 11.28C129.725 11.28 129.175 11.4853 128.717 11.896C128.269 12.3067 128.013 12.876 127.947 13.604H132.791ZM138.505 18.126C137.917 18.126 137.39 18.028 136.923 17.832C136.456 17.6267 136.088 17.3467 135.817 16.992C135.546 16.628 135.397 16.2127 135.369 15.746H136.685C136.722 16.1287 136.9 16.4413 137.217 16.684C137.544 16.9267 137.968 17.048 138.491 17.048C138.976 17.048 139.359 16.9407 139.639 16.726C139.919 16.5113 140.059 16.2407 140.059 15.914C140.059 15.578 139.91 15.3307 139.611 15.172C139.312 15.004 138.85 14.8407 138.225 14.682C137.656 14.5327 137.189 14.3833 136.825 14.234C136.47 14.0753 136.162 13.8467 135.901 13.548C135.649 13.24 135.523 12.8387 135.523 12.344C135.523 11.952 135.64 11.5927 135.873 11.266C136.106 10.9393 136.438 10.6827 136.867 10.496C137.296 10.3 137.786 10.202 138.337 10.202C139.186 10.202 139.872 10.4167 140.395 10.846C140.918 11.2753 141.198 11.8633 141.235 12.61H139.961C139.933 12.2087 139.77 11.8867 139.471 11.644C139.182 11.4013 138.79 11.28 138.295 11.28C137.838 11.28 137.474 11.378 137.203 11.574C136.932 11.77 136.797 12.0267 136.797 12.344C136.797 12.596 136.876 12.806 137.035 12.974C137.203 13.1327 137.408 13.2633 137.651 13.366C137.903 13.4593 138.248 13.5667 138.687 13.688C139.238 13.8373 139.686 13.9867 140.031 14.136C140.376 14.276 140.67 14.4907 140.913 14.78C141.165 15.0693 141.296 15.4473 141.305 15.914C141.305 16.334 141.188 16.712 140.955 17.048C140.722 17.384 140.39 17.65 139.961 17.846C139.541 18.0327 139.056 18.126 138.505 18.126Z" fill="#5F5B53"/>
</svg>
